<mxfile host="app.diagrams.net" modified="2023-04-28T17:58:31.605Z" agent="Mozilla/5.0 (Windows NT 10.0; Win64; x64) AppleWebKit/537.36 (KHTML, like Gecko) Chrome/112.0.0.0 Safari/537.36" etag="QV-zoIrjxL1XD2ncKTvE" version="21.1.8" type="device">
  <diagram name="PÃ¡gina-1" id="W2rkeqDrh8nx1tK3QarS">
    <mxGraphModel dx="926" dy="509" grid="1" gridSize="10" guides="1" tooltips="1" connect="1" arrows="1" fold="1" page="1" pageScale="1" pageWidth="827" pageHeight="1169" math="0" shadow="0">
      <root>
        <mxCell id="0" />
        <mxCell id="1" parent="0" />
        <mxCell id="liweECD58eIvs78uH1kw-18" value="Aluno" style="swimlane;childLayout=stackLayout;horizontal=1;startSize=50;horizontalStack=0;rounded=1;fontSize=14;fontStyle=0;strokeWidth=2;resizeParent=0;resizeLast=1;shadow=0;dashed=0;align=center;arcSize=4;whiteSpace=wrap;html=1;" vertex="1" parent="1">
          <mxGeometry x="118" y="310" width="160" height="150" as="geometry" />
        </mxCell>
        <mxCell id="liweECD58eIvs78uH1kw-19" value="Matricula PK&lt;br&gt;Nome&lt;br&gt;Endereco&lt;br&gt;Telefone&lt;br&gt;Codcidade FK&lt;br&gt;Codcurso FK" style="align=left;strokeColor=none;fillColor=none;spacingLeft=4;fontSize=12;verticalAlign=top;resizable=0;rotatable=0;part=1;html=1;" vertex="1" parent="liweECD58eIvs78uH1kw-18">
          <mxGeometry y="50" width="160" height="100" as="geometry" />
        </mxCell>
        <mxCell id="liweECD58eIvs78uH1kw-21" value="Curso" style="swimlane;childLayout=stackLayout;horizontal=1;startSize=50;horizontalStack=0;rounded=1;fontSize=14;fontStyle=0;strokeWidth=2;resizeParent=0;resizeLast=1;shadow=0;dashed=0;align=center;arcSize=4;whiteSpace=wrap;html=1;" vertex="1" parent="1">
          <mxGeometry x="169" y="600" width="109" height="110" as="geometry" />
        </mxCell>
        <mxCell id="liweECD58eIvs78uH1kw-22" value="Codigo PK&lt;br&gt;Nome" style="align=left;strokeColor=none;fillColor=none;spacingLeft=4;fontSize=12;verticalAlign=top;resizable=0;rotatable=0;part=1;html=1;" vertex="1" parent="liweECD58eIvs78uH1kw-21">
          <mxGeometry y="50" width="109" height="60" as="geometry" />
        </mxCell>
        <mxCell id="liweECD58eIvs78uH1kw-23" value="Disciplina" style="swimlane;childLayout=stackLayout;horizontal=1;startSize=50;horizontalStack=0;rounded=1;fontSize=14;fontStyle=0;strokeWidth=2;resizeParent=0;resizeLast=1;shadow=0;dashed=0;align=center;arcSize=4;whiteSpace=wrap;html=1;" vertex="1" parent="1">
          <mxGeometry x="379" y="600" width="110" height="120" as="geometry" />
        </mxCell>
        <mxCell id="liweECD58eIvs78uH1kw-24" value="Codigo PK&lt;br&gt;Nome&lt;br&gt;Codcurso FK&lt;br&gt;Codprofessor FK" style="align=left;strokeColor=none;fillColor=none;spacingLeft=4;fontSize=12;verticalAlign=top;resizable=0;rotatable=0;part=1;html=1;" vertex="1" parent="liweECD58eIvs78uH1kw-23">
          <mxGeometry y="50" width="110" height="70" as="geometry" />
        </mxCell>
        <mxCell id="liweECD58eIvs78uH1kw-25" value="Professor" style="swimlane;childLayout=stackLayout;horizontal=1;startSize=50;horizontalStack=0;rounded=1;fontSize=14;fontStyle=0;strokeWidth=2;resizeParent=0;resizeLast=1;shadow=0;dashed=0;align=center;arcSize=4;whiteSpace=wrap;html=1;" vertex="1" parent="1">
          <mxGeometry x="599" y="600" width="110" height="110" as="geometry" />
        </mxCell>
        <mxCell id="liweECD58eIvs78uH1kw-26" value="Codigo PK&lt;br&gt;Nome" style="align=left;strokeColor=none;fillColor=none;spacingLeft=4;fontSize=12;verticalAlign=top;resizable=0;rotatable=0;part=1;html=1;" vertex="1" parent="liweECD58eIvs78uH1kw-25">
          <mxGeometry y="50" width="110" height="60" as="geometry" />
        </mxCell>
        <mxCell id="liweECD58eIvs78uH1kw-28" value="Estado" style="swimlane;childLayout=stackLayout;horizontal=1;startSize=50;horizontalStack=0;rounded=1;fontSize=14;fontStyle=0;strokeWidth=2;resizeParent=0;resizeLast=1;shadow=0;dashed=0;align=center;arcSize=4;whiteSpace=wrap;html=1;" vertex="1" parent="1">
          <mxGeometry x="599" y="350" width="110" height="110" as="geometry" />
        </mxCell>
        <mxCell id="liweECD58eIvs78uH1kw-29" value="Codigo PK&lt;br&gt;Nome" style="align=left;strokeColor=none;fillColor=none;spacingLeft=4;fontSize=12;verticalAlign=top;resizable=0;rotatable=0;part=1;html=1;" vertex="1" parent="liweECD58eIvs78uH1kw-28">
          <mxGeometry y="50" width="110" height="60" as="geometry" />
        </mxCell>
        <mxCell id="liweECD58eIvs78uH1kw-30" value="Cidade" style="swimlane;childLayout=stackLayout;horizontal=1;startSize=50;horizontalStack=0;rounded=1;fontSize=14;fontStyle=0;strokeWidth=2;resizeParent=0;resizeLast=1;shadow=0;dashed=0;align=center;arcSize=4;whiteSpace=wrap;html=1;" vertex="1" parent="1">
          <mxGeometry x="379" y="350" width="106.5" height="110" as="geometry" />
        </mxCell>
        <mxCell id="liweECD58eIvs78uH1kw-36" value="" style="endArrow=none;html=1;rounded=0;entryX=0.001;entryY=0.171;entryDx=0;entryDy=0;entryPerimeter=0;" edge="1" parent="liweECD58eIvs78uH1kw-30" target="liweECD58eIvs78uH1kw-31">
          <mxGeometry relative="1" as="geometry">
            <mxPoint x="-101" y="60" as="sourcePoint" />
            <mxPoint x="61" y="60" as="targetPoint" />
          </mxGeometry>
        </mxCell>
        <mxCell id="liweECD58eIvs78uH1kw-37" value="N" style="resizable=0;html=1;whiteSpace=wrap;align=left;verticalAlign=bottom;" connectable="0" vertex="1" parent="liweECD58eIvs78uH1kw-36">
          <mxGeometry x="-1" relative="1" as="geometry" />
        </mxCell>
        <mxCell id="liweECD58eIvs78uH1kw-38" value="1" style="resizable=0;html=1;whiteSpace=wrap;align=right;verticalAlign=bottom;" connectable="0" vertex="1" parent="liweECD58eIvs78uH1kw-36">
          <mxGeometry x="1" relative="1" as="geometry" />
        </mxCell>
        <mxCell id="liweECD58eIvs78uH1kw-31" value="Codigo PK&lt;br&gt;Nome&lt;br&gt;Codestado FK" style="align=left;strokeColor=none;fillColor=none;spacingLeft=4;fontSize=12;verticalAlign=top;resizable=0;rotatable=0;part=1;html=1;" vertex="1" parent="liweECD58eIvs78uH1kw-30">
          <mxGeometry y="50" width="106.5" height="60" as="geometry" />
        </mxCell>
        <mxCell id="liweECD58eIvs78uH1kw-39" value="" style="endArrow=none;html=1;rounded=0;entryX=0.014;entryY=0.085;entryDx=0;entryDy=0;entryPerimeter=0;" edge="1" parent="1">
          <mxGeometry relative="1" as="geometry">
            <mxPoint x="485.5" y="411.63" as="sourcePoint" />
            <mxPoint x="600.54" y="412.1" as="targetPoint" />
          </mxGeometry>
        </mxCell>
        <mxCell id="liweECD58eIvs78uH1kw-40" value="N" style="resizable=0;html=1;whiteSpace=wrap;align=left;verticalAlign=bottom;" connectable="0" vertex="1" parent="liweECD58eIvs78uH1kw-39">
          <mxGeometry x="-1" relative="1" as="geometry" />
        </mxCell>
        <mxCell id="liweECD58eIvs78uH1kw-41" value="1" style="resizable=0;html=1;whiteSpace=wrap;align=right;verticalAlign=bottom;" connectable="0" vertex="1" parent="liweECD58eIvs78uH1kw-39">
          <mxGeometry x="1" relative="1" as="geometry">
            <mxPoint x="-3" as="offset" />
          </mxGeometry>
        </mxCell>
        <mxCell id="liweECD58eIvs78uH1kw-42" value="" style="endArrow=none;html=1;rounded=0;entryX=0.001;entryY=0.171;entryDx=0;entryDy=0;entryPerimeter=0;" edge="1" parent="1">
          <mxGeometry relative="1" as="geometry">
            <mxPoint x="278" y="674" as="sourcePoint" />
            <mxPoint x="379" y="674" as="targetPoint" />
          </mxGeometry>
        </mxCell>
        <mxCell id="liweECD58eIvs78uH1kw-43" value="1" style="resizable=0;html=1;whiteSpace=wrap;align=left;verticalAlign=bottom;" connectable="0" vertex="1" parent="liweECD58eIvs78uH1kw-42">
          <mxGeometry x="-1" relative="1" as="geometry">
            <mxPoint x="2" as="offset" />
          </mxGeometry>
        </mxCell>
        <mxCell id="liweECD58eIvs78uH1kw-44" value="N" style="resizable=0;html=1;whiteSpace=wrap;align=right;verticalAlign=bottom;" connectable="0" vertex="1" parent="liweECD58eIvs78uH1kw-42">
          <mxGeometry x="1" relative="1" as="geometry">
            <mxPoint x="-1" as="offset" />
          </mxGeometry>
        </mxCell>
        <mxCell id="liweECD58eIvs78uH1kw-45" value="" style="endArrow=none;html=1;rounded=0;" edge="1" parent="1">
          <mxGeometry relative="1" as="geometry">
            <mxPoint x="489" y="674" as="sourcePoint" />
            <mxPoint x="600" y="674" as="targetPoint" />
          </mxGeometry>
        </mxCell>
        <mxCell id="liweECD58eIvs78uH1kw-46" value="N" style="resizable=0;html=1;whiteSpace=wrap;align=left;verticalAlign=bottom;" connectable="0" vertex="1" parent="liweECD58eIvs78uH1kw-45">
          <mxGeometry x="-1" relative="1" as="geometry">
            <mxPoint x="2" as="offset" />
          </mxGeometry>
        </mxCell>
        <mxCell id="liweECD58eIvs78uH1kw-47" value="N" style="resizable=0;html=1;whiteSpace=wrap;align=right;verticalAlign=bottom;" connectable="0" vertex="1" parent="liweECD58eIvs78uH1kw-45">
          <mxGeometry x="1" relative="1" as="geometry">
            <mxPoint x="-3" as="offset" />
          </mxGeometry>
        </mxCell>
        <mxCell id="liweECD58eIvs78uH1kw-48" value="" style="endArrow=none;html=1;rounded=0;" edge="1" parent="1">
          <mxGeometry relative="1" as="geometry">
            <mxPoint x="200" y="460" as="sourcePoint" />
            <mxPoint x="200" y="600" as="targetPoint" />
          </mxGeometry>
        </mxCell>
        <mxCell id="liweECD58eIvs78uH1kw-49" value="N" style="resizable=0;html=1;whiteSpace=wrap;align=left;verticalAlign=bottom;" connectable="0" vertex="1" parent="liweECD58eIvs78uH1kw-48">
          <mxGeometry x="-1" relative="1" as="geometry">
            <mxPoint x="-16" y="20" as="offset" />
          </mxGeometry>
        </mxCell>
        <mxCell id="liweECD58eIvs78uH1kw-50" value="1" style="resizable=0;html=1;whiteSpace=wrap;align=right;verticalAlign=bottom;" connectable="0" vertex="1" parent="liweECD58eIvs78uH1kw-48">
          <mxGeometry x="1" relative="1" as="geometry">
            <mxPoint x="-5" y="-2" as="offset" />
          </mxGeometry>
        </mxCell>
      </root>
    </mxGraphModel>
  </diagram>
</mxfile>
